<svg version="1.2" xmlns="http://www.w3.org/2000/svg" viewBox="0 0 1542 3065" width="1542" height="3065">
	<title>logo (50)</title>
	<defs>
		<clipPath clipPathUnits="userSpaceOnUse" id="cp1">
			<path d="m1541.48 0.41v3064.55h-1541.48v-3064.55z"/>
		</clipPath>
		<clipPath clipPathUnits="userSpaceOnUse" id="cp2">
			<path d="m1541.48 0.41v3064.55h-1541.48v-3064.55z"/>
		</clipPath>
		<clipPath clipPathUnits="userSpaceOnUse" id="cp3">
			<path d="m1541.48 0.41v3064.55h-1541.48v-3064.55z"/>
		</clipPath>
		<clipPath clipPathUnits="userSpaceOnUse" id="cp4">
			<path d="m1541.48 0.41v3064.55h-1541.48v-3064.55z"/>
		</clipPath>
		<clipPath clipPathUnits="userSpaceOnUse" id="cp5">
			<path d="m1541.48 0.41v3064.55h-1541.48v-3064.55z"/>
		</clipPath>
		<clipPath clipPathUnits="userSpaceOnUse" id="cp6">
			<path d="m1541.48 0.41v3064.55h-1541.48v-3064.55z"/>
		</clipPath>
		<clipPath clipPathUnits="userSpaceOnUse" id="cp7">
			<path d="m1541.48 0.41v3064.55h-1541.48v-3064.55z"/>
		</clipPath>
		<clipPath clipPathUnits="userSpaceOnUse" id="cp8">
			<path d="m1541.48 0.41v3064.55h-1541.48v-3064.55z"/>
		</clipPath>
		<clipPath clipPathUnits="userSpaceOnUse" id="cp9">
			<path d="m1541.48 0.41v3064.55h-1541.48v-3064.55z"/>
		</clipPath>
		<clipPath clipPathUnits="userSpaceOnUse" id="cp10">
			<path d="m1541.48 0.41v3064.55h-1541.48v-3064.55z"/>
		</clipPath>
		<clipPath clipPathUnits="userSpaceOnUse" id="cp11">
			<path d="m1541.48 0.41v3064.55h-1541.48v-3064.55z"/>
		</clipPath>
		<clipPath clipPathUnits="userSpaceOnUse" id="cp12">
			<path d="m1541.48 0.41v3064.55h-1541.48v-3064.55z"/>
		</clipPath>
		<clipPath clipPathUnits="userSpaceOnUse" id="cp13">
			<path d="m1541.48 0.41v3064.55h-1541.48v-3064.55z"/>
		</clipPath>
	</defs>
	<style>
		.s0 { fill: #007934 } 
		.s1 { fill: #ffffff } 
		.s2 { fill: #404041 } 
	</style>
	<path fill-rule="evenodd" class="s0" d="m1541.5 0.4v2001.8h-1536.2v-2001.8z"/>
	<g>
		<g id="Clip-Path" clip-path="url(#cp1)">
			<path class="s1" d="m697.1 1192c-47.4-89.4 13.1-144.6 28.9-194.6 18.4-52.6-26.3-86.8-26.3-86.8 29 78.9-28.9 115.7-42.1 173.6-13.1 63.1 39.5 107.8 39.5 107.8z"/>
		</g>
		<g id="Clip-Path" clip-path="url(#cp2)">
			<path class="s1" d="m1099.6 839.5c-97.4 2.7-131.6 29-192.1 29q-3.9 0-7.9 0c-10.5 0-23.6 0-36.8-2.6-18.4-5.3-47.3-26.4-47.3-89.5 0-2.6 0-2.6 0-5.2-2.7-34.2-2.7-60.5-2.7-57.9-5.2 7.9 0 7.9-26.3 50-10.5 18.4-23.7 31.5-39.4 52.6-10.6 13.1-15.8 26.3-15.8 36.8q0 3.9 0 7.9c-23.7 2.6-34.2 10.5-44.7 18.4 0 0 81.5 31.6 55.2 110.5-23.7 81.5-81.5 142-15.8 226.2 0 0-99.9-21-92-121 7.8-78.9 60.5-89.4 52.6-163.1-10.6-84.2-118.4-52.6-126.3-47.3 0 0 28.9-2.7 44.7 21 0 0-34.2-7.9-68.4 21.1 0 0 50-13.2 65.8 21 5.2 13.1 7.9 65.8-113.1 97.3-147.3 39.5-184.2 126.3-197.3 165.7 0 0 65.7-76.2 178.9-52.6 0 0 0 52.6-102.6 86.8-89.5 31.6-150 107.9-139.4 197.3 0 0 55.2-105.2 205.1-128.9 0 0-18.4 107.9-205.1 223.6 0 0 126.2 21.1 176.2-47.3 0 0 28.9 128.9-155.2 234.1 0 0 157.8 28.9 221-105.2 0 0 18.4 76.3-10.6 152.5 0 0 26.3-47.3 73.7-60.5 0 0 36.8 39.5 18.4 178.9 0 0 105.2-397.2 444.6-386.7 0 0-113.1-86.8-136.8-234.1-5.3-39.4-5.3-73.6-5.3-73.6 0 0-68.4-26.3-68.4-121 0 0 23.7 99.9 110.5 99.9 84.2 0 128.9-55.2 197.3-110.5 31.6-26.3 142-7.9 184.1-21v-36.8h-52.6v-21.1h52.6v-102.6c-5.2-10.5-76.3-44.7-178.8-42.1zm-218.4 97.4c0 2.6-5.2 7.9-26.3 7.9-10.5 0-34.2-5.3-34.2-10.6 0-2.6 7.9-7.8 26.3-21 7.9-5.3 23.7-10.5 31.6 0 7.9 10.5 2.6 21 2.6 23.7z"/>
		</g>
		<g id="Clip-Path" clip-path="url(#cp3)">
			<path class="s1" d="m733.9 779c2.6-10.5 7.9-15.7 26.3-42 10.5-18.5 26.3-39.5 34.2-63.2 7.9-21 10.5-44.7 10.5-63.1 0-10.5 0-52.6-2.6-50-2.6 2.6 2.6 7.9-15.8 42.1-7.9 13.2-15.8 28.9-23.7 39.5-13.1 18.4-21 36.8-21 49.9 0 7.9-10.5 92.1-7.9 86.8z"/>
		</g>
		<g id="Clip-Path" clip-path="url(#cp4)">
			<path class="s1" d="m744.4 613.3c2.7-10.5 5.3-15.8 18.4-34.2 13.2-18.4 26.4-42.1 29-63.1 5.2-18.4 2.6-34.2 2.6-42.1 0-7.9 0-36.8-2.6-36.8 0 0 0 10.5-7.9 21-5.3 10.5-15.8 29-21.1 36.8-5.2 10.6-13.1 23.7-13.1 34.2 2.6 15.8-7.9 92.1-5.3 84.2z"/>
		</g>
		<g id="Clip-Path" clip-path="url(#cp5)">
			<path class="s1" d="m765.5 439.7c7.9-15.8 15.8-26.3 21-47.3 2.7-7.9 2.7-21.1 2.7-26.3 0-5.3-2.7-34.2-2.7-34.2 0 0 0 5.2-7.9 23.6-2.6 7.9-7.9 15.8-10.5 23.7-5.3 7.9-10.5 18.4-10.5 28.9 0 7.9-5.3 60.5-5.3 57.9 2.7-10.5 7.9-15.8 13.2-26.3z"/>
		</g>
		<g id="Clip-Path" clip-path="url(#cp6)">
			<path class="s1" d="m760.2 339.7c2.6-15.7 7.9-23.6 10.5-31.5 10.6-21.1 13.2-36.8 13.2-50 0-13.1-7.9-126.3-7.9-126.3 0 0 0-7.9-2.6-7.9-2.7 0-2.7 7.9-2.7 7.9 0 0-13.1 221-10.5 207.8z"/>
		</g>
	</g>
	<path class="s0" d="m2.6 2617.8h50v-334.1h-50zm-2.6-407.7h57.9v-55.3h-57.9z"/>
	<g>
		<g id="Clip-Path" clip-path="url(#cp7)">
			<path class="s0" d="m152.6 2283.7h49.9v57.9c21.1-36.9 57.9-65.8 113.2-65.8 81.5 0 128.9 55.2 128.9 134.2v207.8h-50v-194.7c0-63.1-34.2-99.9-92.1-99.9-57.9 0-100 42-100 105.2v192h-49.9z"/>
		</g>
		<g id="Clip-Path" clip-path="url(#cp8)">
			<path class="s0" d="m502.4 2452c0-110.4 78.9-173.6 160.5-173.6 63.1 0 102.6 34.2 128.9 71.1v-202.6h50v470.9h-52.6v-65.8c-26.4 39.5-65.8 73.7-128.9 73.7-79-2.7-157.9-65.8-157.9-173.7zm289.4-2.6c0-78.9-57.9-128.9-121-128.9-65.8 0-118.4 47.4-118.4 128.9v2.6c0 79 55.2 128.9 118.4 128.9 63.1-2.6 121-52.6 121-131.5z"/>
		</g>
		<g id="Clip-Path" clip-path="url(#cp9)">
			<path class="s0" d="m923.3 2491.5v-207.8h50v194.7c0 63.1 34.2 99.9 92.1 99.9 57.8 0 99.9-42.1 99.9-105.2v-192h50v334h-50v-55.2c-23.7 36.8-57.9 65.8-113.1 65.8-81.5-2.7-128.9-55.3-128.9-134.2z"/>
		</g>
		<g id="Clip-Path" clip-path="url(#cp10)">
			<path class="s0" d="m1283.7 2573.1l26.3-34.2c36.8 26.3 76.3 42 115.7 42 39.5 0 68.4-21 68.4-52.6 0-34.2-39.4-47.3-84.1-57.8-52.7-15.8-110.5-34.2-110.5-94.7 0-57.9 47.3-94.7 113.1-94.7 39.4 0 86.8 13.1 121 36.8l-23.7 36.8c-31.6-21-65.8-31.5-99.9-31.5-39.5 0-65.8 21-65.8 47.3 0 31.6 42.1 44.7 86.8 57.9 52.6 15.8 107.8 34.2 107.8 94.7 0 63.1-52.6 99.9-118.3 99.9-47.4 0-100-18.4-136.8-49.9z"/>
		</g>
	</g>
	<path fill-rule="evenodd" class="s2" d="m0 2770.3v29h81.5v260.4h31.6v-260.4h78.9v-29z"/>
	<g>
		<g id="Clip-Path" clip-path="url(#cp11)">
			<path class="s2" d="m199.9 2917.6v-2.6c0-84.2 50-147.3 123.7-147.3 73.6 0 123.6 63.1 123.6 147.3v2.6c0 84.2-50 147.4-123.6 147.4-73.7 0-123.7-63.2-123.7-147.4zm218.4 0v-2.6c0-71-39.5-118.4-92.1-118.4-52.6 0-92.1 50-92.1 118.4v2.6c0 68.4 39.5 118.4 92.1 118.4 52.6 0 92.1-50 92.1-118.4z"/>
		</g>
	</g>
	<path fill-rule="evenodd" class="s2" d="m644.5 2770.3l-68.4 236.8-65.8-236.8h-34.2l86.8 292h26.3l68.4-234.1 68.4 234.1h26.3l86.8-292h-31.5l-68.4 236.8-68.4-236.8z"/>
	<path fill-rule="evenodd" class="s2" d="m883.9 2770.3v289.4h178.8v-28.9h-147.3v-102.6h128.9v-29h-128.9v-99.9h144.7v-29z"/>
	<g>
		<g id="Clip-Path" clip-path="url(#cp12)">
			<path class="s2" d="m1118 2770.3h97.3c34.2 0 60.5 10.6 76.3 26.3 13.1 13.2 23.7 34.2 23.7 60.5 0 44.8-29 73.7-68.4 84.2l76.2 118.4h-36.8l-73.6-113.1h-65.8v113.1h-31.6v-289.4zm92.1 150c47.4 0 73.7-23.7 73.7-60.5 0-36.9-26.3-57.9-68.4-57.9h-65.8v121h60.5z"/>
		</g>
		<g id="Clip-Path" clip-path="url(#cp13)">
			<path class="s2" d="m1352.1 3022.9l18.4-23.7c23.7 21 50 36.8 81.5 36.8 34.2 0 57.9-21 57.9-47.3 0-23.7-10.5-39.5-63.1-57.9-60.5-21-84.2-44.7-84.2-84.2 0-42.1 36.8-76.3 86.8-76.3 34.2 0 60.5 10.6 86.8 31.6l-18.4 23.7c-21-18.4-44.7-29-68.4-29-34.2 0-55.2 21.1-55.2 44.8 0 26.3 13.1 39.4 68.4 60.5 57.8 21 78.9 44.7 78.9 84.1 0 47.4-36.8 79-89.5 79-39.4-2.7-71-13.2-99.9-42.1z"/>
		</g>
	</g>
	<g>
	</g>
	<g>
	</g>
	<g>
	</g>
	<g>
	</g>
	<g>
	</g>
	<g>
	</g>
	<g>
	</g>
	<g>
	</g>
	<g>
	</g>
	<g>
	</g>
	<g>
	</g>
	<g>
	</g>
	<g>
	</g>
	<g>
	</g>
	<g>
	</g>
</svg>