<svg version="1.2" xmlns="http://www.w3.org/2000/svg" viewBox="0 0 1572 229" width="1572" height="229">
	<title>663c9df0ebe0f5f24d9fe15d_NCR Atleos logo-svg</title>
	<defs>
		<clipPath clipPathUnits="userSpaceOnUse" id="cp1">
			<path d="m0.45 0.04h1572.26v228.92h-1572.26z"/>
		</clipPath>
	</defs>
	<style>
		.s0 { fill: #004e42 } 
	</style>
	<g id="Clip-Path" clip-path="url(#cp1)">
		<g id="Layer">
			<path id="Layer" fill-rule="evenodd" class="s0" d="m320.2 45.7h46.1l48.6 106.9h3.4v-106.9h26.4v137.1h-46.1l-48.8-106.9h-3.2v106.9h-26.4zm150.2 68.6c0-42.6 28.1-71.8 69.1-71.8 36.4 0 60.9 21 62.8 53.4h-27c-4.2-19.7-15.6-28.3-28.7-28.3h-15.3c-18.4 0-33.6 20.6-33.6 46.7 0 26.2 15.2 46.7 33.6 46.7h15.3c13.1 0 24.9-8.5 29.1-28.2h27c-1.9 31.5-26.8 53.3-64 53.3-39.1 0-68.3-24.4-68.3-71.8zm158.5-68.5h63.7c29.8 0 44.8 19.7 44.8 41.6 0.2 8.3-2.3 16.5-7 23.3-4.7 6.7-11.5 11.8-19.3 14.3l31.5 57.9h-29.9l-29-53.8h-27.9v53.8h-26.9zm61.8 61.3c12.4 0 19.8-8.4 19.8-19.1 0-10.7-7.5-19.1-19.9-19.1h-34.8v38.1zm150.6-61.3h48.3l44.9 137.1h-27.7l-11.2-34.1h-61.1l-11.2 34.1h-27zm46.5 79.5l-17.3-52.7h-11l-17.4 52.8zm84.2-55.1h-42.3v-24.5h111.2v24.4h-42.1v112.7h-26.8zm92.6-24.4h26.9v112.7h68v24.4h-95zm118.4 0h99.2v23.1h-72.6v32.3h67.2v22.7h-67.2v35.8h73.5v23.1h-100.2zm119.2 68.6c0-42.9 28.3-71.8 70-71.8 41.2 0 69.7 28.9 69.7 71.8 0 42.9-28.5 71.8-69.7 71.8-41.8-0.1-70.1-29-70.1-71.9zm62.8 46.7h14.5c19.9 0 34.9-20.5 34.9-46.7 0-26.1-15.1-46.8-35-46.8h-14.6c-20 0-35.3 21-35.3 46.7 0 25.7 15.3 46.7 35.3 46.7zm95.1-20.3h27.5c1.5 12 8.6 21 21.5 21h17.4c11.8 0 18.6-7.3 18.6-17.2 0-9-5.9-15.4-15.9-16.5l-28.7-3.2c-24.5-2.8-36.8-17.6-36.8-39.6 0-26.8 19.7-42.7 52.1-42.7 33.8 0 51.8 15.2 53 45.2h-27.4c-0.9-10.6-7.4-20.8-19.7-20.8h-14.4c-10.3 0-17.3 6.2-17.3 16.3 0 10.1 7.4 16 16.6 17.1l28.8 3.2c23 2.6 36.1 15.7 36.1 39.5 0 27-18.6 43-55.5 43-37 0-55.4-15.4-56-45.4zm-1267.7-107c21.1 21.4 32.9 50.3 32.9 80.5 0 30.2-11.8 59.2-32.9 80.5-21 21.4-49.6 33.4-79.4 33.4-29.7 0-58.3-12-79.3-33.4-21.1-21.3-32.9-50.3-32.9-80.5 0-30.2 11.8-59.1 32.9-80.5 21-21.3 49.6-33.3 79.3-33.3 29.8 0 58.4 12 79.4 33.3zm-25.7 100.5q-9.8 10.5-20.8 19.8c-19 16.6-40.7 29.7-64.2 38.8q-1.9 0.7-3.8 1.4c9.5 15.3 21.8 24.5 35.1 24.5 26.7 0 48.9-36.4 53.7-84.5zm-132.3 47.4c4.4 4.6 15.3 3.1 26.6-0.5-5.7-14.6-9.3-29.8-10.8-45.4-9.2 13.7-22.5 36.8-16.2 45.4q0.2 0.2 0.4 0.4zm24.9-87.3q9.8-10.5 20.8-19.8c19.1-16.6 40.8-29.7 64.2-38.9q1.9-0.7 3.9-1.3c-9.5-15.3-21.8-24.5-35.2-24.5-26.6 0-48.8 36.4-53.7 84.5zm105.8-46.9c5.7 14.5 9.4 29.8 10.9 45.3 9.1-13.7 22.5-36.8 16.1-45.4l-0.3-0.4c-4.6-4.7-15.5-3.1-26.7 0.5zm-105.5 75.7c15.6 0.9 33.9 1.5 53.5 1.5 13.1 0 25.5-0.3 37.1-0.7 5.8-5.9 11.3-12.1 16.4-18.5-15.6-0.9-33.9-1.5-53.5-1.5-13.1 0-25.5 0.3-37.1 0.7-5.8 6-11.3 12.1-16.4 18.5zm96.7-72.7q-11.3 4.3-22 10c-14.9 8.2-28.9 17.9-41.9 28.9q-3.2 2.8-6.4 5.6c8.7-0.2 17.8-0.3 27-0.3 19.3 0 37.8 0.5 53.9 1.5-1.3-15.7-4.9-31.1-10.6-45.7zm-107.3 55.8c-23.7 1.9-38.9 4.8-38.9 8.1 0 2.7 10.5 5.2 27.8 7 3.4-5.2 7.2-10.2 11.1-15.1zm-38.4 19.7c1.3 11.7 4.6 23.1 9.7 33.7 1.5-9.8 6.2-19.5 11-27.7l1-1.8q-8.2-0.9-16.3-2.7-2.7-0.6-5.4-1.5zm59.2 52.2q11.3-4.3 22-10c14.8-8.2 28.9-17.9 41.9-28.8q3.2-2.8 6.3-5.7c-8.6 0.2-17.7 0.3-27 0.3-19.2 0-37.7-0.5-53.8-1.5 1.3 15.7 4.8 31.1 10.6 45.7zm107.2-55.8c23.8-1.9 39-4.8 39-8 0-2.8-10.6-5.2-27.8-7.1-3.5 5.2-7.2 10.2-11.2 15.1zm38.4-19.6c-1.3-11.8-4.6-23.2-9.7-33.8-1.5 9.9-6.2 19.6-10.9 27.7l-1.1 1.8q8.2 0.9 16.3 2.7 2.8 0.6 5.4 1.6zm-70.8-87.9c5 4.9 9.2 10.5 12.7 16.6 5.2-1.3 10.5-1.9 15.8-1.9-8.7-6.4-18.3-11.4-28.5-14.7zm-111.3 33.4c-12.5 15.6-20.4 34.5-22.6 54.5q2.6-1 5.3-1.6 11.6-2.4 23.3-3.5c3.3-0.3 6.8-0.6 10.5-0.9 2.9-35.6 14.9-65.2 31.6-81.9-18.8 6.2-35.5 17.8-48.1 33.4zm48.1 165.6c-5-5-9.2-10.6-12.8-16.7-5.1 1.3-10.4 1.9-15.7 1.9 8.6 6.4 18.3 11.4 28.5 14.8zm111.4-33.5c12.5-15.6 20.4-34.5 22.6-54.5q-2.6 1-5.4 1.6-11.5 2.4-23.2 3.5-5 0.5-10.5 0.9c-3 35.5-14.9 65.2-31.7 81.9 18.9-6.2 35.6-17.8 48.2-33.4z"/>
		</g>
	</g>
</svg>