<?xml version="1.0" encoding="utf-8"?>
<!-- Generator: Adobe Illustrator 19.2.1, SVG Export Plug-In . SVG Version: 6.00 Build 0)  -->
<svg version="1.1" id="layer" xmlns="http://www.w3.org/2000/svg" xmlns:xlink="http://www.w3.org/1999/xlink" x="0px" y="0px"
	 viewBox="0 0 652 652" style="enable-background:new 0 0 652 652;" xml:space="preserve">
<style type="text/css">
	.st0{fill:#31A7E0;}
	.st1{fill:#E40B16;}
	.st2{fill:#C3C4C4;}
</style>
<g>
	<path class="st0" d="M41.4,363.3c0,1.1,0.9,2,2,2c0.8,0,1.5-0.5,1.8-1.2c9.7-23.6,21.7-46.2,35.6-67.6c0.1-0.1,0.2-0.2,0.3-0.3
		c0.8-0.8,2.1-0.8,2.8,0l5.3,5.3c0.4,0.4,0.7,1.1,0.6,1.7c-2.9,20.3-4.1,40.9-3.8,61.4c0,0.3,0.1,0.6,0.2,0.8
		c0.1,0.3,0.3,0.5,0.5,0.7c0.2,0.1,0.3,0.2,0.5,0.3c0.1,0,0.2,0.1,0.4,0.1c0.2,0,0.4,0.1,0.6,0c0.3,0,0.5-0.1,0.8-0.2
		c0.2-0.1,0.3-0.2,0.4-0.3c4.3-4.3,8.9-8.1,13.9-11.6c7.9-5.5,16.5-10,25.3-13.7c6.2-2.6,12.6-4.9,19.1-6.9
		c9.2-2.8,18.7-5.1,28.1-6.9c13.2-2.6,26.5-4.3,39.8-5.7c14.3-1.4,28.7-2.3,43-2.9c20.4-0.9,40.9-1.2,61.2-1.3c20-0.2,40-0.1,60-0.1
		c24.9,0,49.7,0,74.6,0.1c29.5,0,59,0,88.5,0c25,0,50.1,0,75.1,0c0.4,0,0.7,0.1,1,0.3c0.9,0.6,1.3,1.8,0.7,2.7l-3.1,5.2
		c-0.4,0.6-1,1-1.7,1c-47.5,0.4-95,1.1-142.5,2c-23.7,0.5-47.5,1-71.2,1.6c-23.7,0.6-47.4,1.3-71.1,2.1c-30.7,1.1-61.5,2.4-92.1,5
		c-16.6,1.4-33.3,3.3-49.8,6.2c-16.5,2.9-32.8,6.8-48.2,13c-8.1,3.2-16.1,7.2-23.4,12c-7.3,4.8-14,10.4-19.7,16.9
		c-3.1,3.6-5.9,7.4-8.3,11.4c-4.2,6.9-7.3,14.4-9.5,22.2c-0.1,0.3-0.3,0.6-0.5,0.9c-0.8,0.8-2,0.8-2.8,0l-5.7-5.7
		c-0.4-0.4-0.6-0.9-0.6-1.5l2.1-56.8c0-1.1-0.8-2-1.9-2.1c-0.8,0-1.4,0.4-1.8,1c-13.6,24.1-24.4,49.7-32.2,76.2
		c-0.1,0.3-0.3,0.6-0.5,0.9c-0.8,0.8-2.1,0.8-2.8,0l-2.8-2.8c-0.4-0.4-0.6-0.9-0.6-1.4v-84.2c0-1.1-0.9-2-2-2
		c-0.3,0-0.6,0.1-0.9,0.2l-3.2,1.6c-0.3,0.1-0.6,0.2-0.9,0.2c-1.1,0-2-0.9-2-2v-8.3c0-0.8,0.4-1.5,1.1-1.8l17.4-8.6
		c0.3-0.1,0.6-0.2,0.9-0.2c1.1,0,2,0.9,2,2V363.3z"/>
	<path class="st1" d="M144.5,212.8h11V261c0,8.4-0.9,15-2.8,20c-1.9,4.9-5.3,8.9-10.3,12c-4.9,3.1-11.4,4.6-19.5,4.6
		c-7.8,0-14.2-1.3-19.2-4c-5-2.7-8.5-6.6-10.6-11.7c-2.1-5.1-3.2-12.1-3.2-20.9v-48.2h11v48.1c0,7.2,0.7,12.6,2,16
		c1.3,3.4,3.7,6.1,6.9,7.9c3.3,1.9,7.3,2.8,12,2.8c8.1,0,13.9-1.8,17.3-5.5c3.4-3.7,5.2-10.7,5.2-21.2V212.8z"/>
	<path class="st1" d="M170.2,269.4l10.4-0.9c0.5,4.2,1.6,7.6,3.4,10.3s4.6,4.8,8.4,6.5c3.8,1.7,8.1,2.5,12.8,2.5
		c4.2,0,7.9-0.6,11.1-1.9c3.2-1.2,5.6-3,7.2-5.1c1.6-2.2,2.4-4.6,2.4-7.1c0-2.6-0.8-4.9-2.3-6.9c-1.5-1.9-4-3.6-7.5-4.9
		c-2.2-0.9-7.2-2.2-14.8-4.1c-7.7-1.8-13-3.6-16.1-5.2c-4-2.1-6.9-4.7-8.9-7.8c-2-3.1-2.9-6.5-2.9-10.4c0-4.2,1.2-8.1,3.6-11.8
		c2.4-3.7,5.9-6.4,10.5-8.3c4.6-1.9,9.7-2.8,15.3-2.8c6.2,0,11.6,1,16.3,3c4.7,2,8.3,4.9,10.9,8.8c2.5,3.9,3.9,8.2,4.1,13.1
		l-10.6,0.8c-0.6-5.3-2.5-9.2-5.8-11.9c-3.3-2.7-8.1-4-14.5-4c-6.7,0-11.5,1.2-14.6,3.7c-3,2.4-4.6,5.4-4.6,8.8c0,3,1.1,5.5,3.2,7.4
		c2.1,1.9,7.7,3.9,16.6,5.9c9,2,15.1,3.8,18.5,5.3c4.9,2.2,8.4,5.1,10.7,8.5c2.3,3.4,3.5,7.4,3.5,11.9c0,4.4-1.3,8.6-3.8,12.5
		c-2.5,3.9-6.2,7-10.9,9.2c-4.8,2.2-10.1,3.3-16.1,3.3c-7.5,0-13.9-1.1-19-3.3c-5.1-2.2-9.1-5.5-12-9.9
		C171.8,279.9,170.3,274.9,170.2,269.4"/>
	<polygon class="st1" points="272.8,296.1 272.8,222.6 245.3,222.6 245.3,212.8 311.4,212.8 311.4,222.6 283.8,222.6 283.8,296.1 	
		"/>
	<path class="st2" d="M351.1,267.1v-7.8l28,0v24.6c-4.3,3.4-8.7,6-13.3,7.7c-4.6,1.7-9.3,2.6-14.1,2.6c-6.5,0-12.4-1.4-17.7-4.2
		c-5.3-2.8-9.3-6.8-12-12.1c-2.7-5.3-4.1-11.2-4.1-17.7c0-6.4,1.3-12.5,4-18c2.7-5.6,6.6-9.7,11.6-12.4c5.1-2.7,10.9-4.1,17.5-4.1
		c4.8,0,9.1,0.8,13,2.3c3.9,1.6,6.9,3.7,9.1,6.5c2.2,2.8,3.9,6.4,5,10.8l-7.9,2.2c-1-3.4-2.2-6-3.7-7.9c-1.5-1.9-3.6-3.5-6.3-4.6
		c-2.7-1.2-5.8-1.7-9.1-1.7c-4,0-7.5,0.6-10.4,1.8c-2.9,1.2-5.3,2.8-7.1,4.8c-1.8,2-3.2,4.2-4.2,6.5c-1.7,4.1-2.5,8.5-2.5,13.3
		c0,5.9,1,10.8,3,14.8c2,4,5,6.9,8.9,8.8c3.9,1.9,8,2.9,12.4,2.9c3.8,0,7.5-0.7,11.1-2.2c3.6-1.5,6.4-3,8.2-4.7v-12.3H351.1z"/>
	<rect x="390.8" y="226.9" class="st2" width="8.1" height="66.2"/>
	<path class="st2" d="M408.5,269.1c0-8.9,2.5-15.5,7.4-19.7c4.1-3.6,9.2-5.3,15.1-5.3c6.6,0,12,2.2,16.2,6.5
		c4.2,4.3,6.3,10.3,6.3,17.9c0,6.2-0.9,11-2.8,14.6c-1.9,3.5-4.5,6.3-8.1,8.2c-3.5,2-7.4,2.9-11.6,2.9c-6.7,0-12.1-2.2-16.3-6.5
		C410.6,283.4,408.5,277.2,408.5,269.1 M416.9,269.1c0,6.1,1.3,10.7,4,13.8c2.7,3.1,6.1,4.6,10.1,4.6c4,0,7.4-1.5,10.1-4.6
		c2.7-3.1,4-7.8,4-14c0-5.9-1.3-10.4-4-13.5c-2.7-3.1-6-4.6-10-4.6c-4.1,0-7.4,1.5-10.1,4.6C418.2,258.4,416.9,263,416.9,269.1"/>
	<path class="st2" d="M470.4,293.1h-7.5v-66.2h8.1v23.6c3.4-4.3,7.8-6.5,13.1-6.5c2.9,0,5.7,0.6,8.4,1.8c2.6,1.2,4.8,2.9,6.5,5
		c1.7,2.2,3,4.8,4,7.8c1,3,1.4,6.3,1.4,9.8c0,8.2-2,14.6-6.1,19.1c-4.1,4.5-8.9,6.7-14.6,6.7c-5.7,0-10.1-2.4-13.3-7.1V293.1z
		 M470.4,268.8c0,5.7,0.8,9.9,2.3,12.5c2.6,4.2,6,6.3,10.4,6.3c3.6,0,6.6-1.5,9.2-4.6c2.6-3.1,3.9-7.7,3.9-13.8
		c0-6.3-1.2-10.9-3.7-13.9c-2.5-3-5.5-4.5-9-4.5c-3.6,0-6.6,1.5-9.2,4.6C471.6,258.5,470.4,262.9,470.4,268.8"/>
	<path class="st2" d="M545.7,287.2c-3,2.6-5.9,4.4-8.7,5.4c-2.8,1.1-5.8,1.6-9,1.6c-5.3,0-9.3-1.3-12.1-3.9
		c-2.8-2.6-4.2-5.9-4.2-9.9c0-2.3,0.5-4.5,1.6-6.4c1.1-1.9,2.5-3.5,4.2-4.7c1.7-1.2,3.7-2.1,5.8-2.7c1.6-0.4,4-0.8,7.2-1.2
		c6.6-0.8,11.4-1.7,14.5-2.8c0-1.1,0-1.8,0-2.1c0-3.3-0.8-5.6-2.3-7c-2.1-1.8-5.2-2.8-9.3-2.8c-3.8,0-6.6,0.7-8.5,2
		c-1.8,1.3-3.2,3.7-4,7.1l-7.9-1.1c0.7-3.4,1.9-6.1,3.6-8.2c1.7-2.1,4.1-3.7,7.2-4.8c3.1-1.1,6.8-1.7,10.9-1.7c4.1,0,7.4,0.5,10,1.4
		c2.6,1,4.4,2.2,5.6,3.6c1.2,1.5,2,3.3,2.5,5.5c0.3,1.4,0.4,3.9,0.4,7.5V273c0,7.6,0.2,12.3,0.5,14.3c0.3,2,1,3.9,2.1,5.8h-8.5
		C546.4,291.4,545.9,289.4,545.7,287.2 M545,269c-3,1.2-7.4,2.2-13.3,3.1c-3.3,0.5-5.7,1-7.1,1.6c-1.4,0.6-2.5,1.5-3.2,2.6
		c-0.8,1.2-1.1,2.4-1.1,3.9c0,2.2,0.8,4,2.5,5.4c1.6,1.4,4,2.2,7.2,2.2c3.1,0,5.9-0.7,8.4-2.1c2.4-1.4,4.2-3.2,5.4-5.6
		c0.9-1.8,1.3-4.5,1.3-8.1V269z"/>
	<rect x="565.6" y="226.9" class="st2" width="8.1" height="66.2"/>
	<path class="st2" d="M604.8,226.2c2.5,0,4.9,0.6,7.2,1.9c2.4,1.3,4.2,3.1,5.5,5.4c1.3,2.4,2,4.8,2,7.4c0,2.5-0.6,5-1.9,7.3
		c-1.3,2.3-3.1,4.2-5.4,5.5c-2.3,1.3-4.8,1.9-7.3,1.9c-2.5,0-5-0.6-7.3-1.9c-2.3-1.3-4.2-3.1-5.5-5.5c-1.3-2.3-1.9-4.8-1.9-7.3
		c0-2.6,0.7-5,2-7.4c1.3-2.4,3.2-4.2,5.5-5.4C599.9,226.8,602.3,226.2,604.8,226.2 M604.8,228.6c-2.1,0-4.1,0.5-6,1.6
		c-2,1.1-3.5,2.6-4.6,4.5c-1.1,2-1.7,4-1.7,6.2c0,2.1,0.5,4.2,1.6,6.1c1.1,1.9,2.6,3.5,4.6,4.5c2,1.1,4,1.6,6.1,1.6
		c2.1,0,4.2-0.5,6.1-1.6c2-1.1,3.5-2.6,4.5-4.5c1.1-1.9,1.6-4,1.6-6.1c0-2.1-0.5-4.2-1.6-6.2c-1.1-2-2.6-3.5-4.6-4.5
		C608.8,229.1,606.8,228.6,604.8,228.6 M598.3,249v-15.8h5.4c1.9,0,3.2,0.1,4,0.4c0.8,0.3,1.5,0.8,2,1.5c0.5,0.7,0.7,1.5,0.7,2.3
		c0,1.2-0.4,2.2-1.2,3c-0.8,0.9-1.9,1.3-3.3,1.4c0.6,0.2,1,0.5,1.3,0.8c0.6,0.6,1.4,1.7,2.3,3.1l1.9,3.1h-3.1l-1.4-2.5
		c-1.1-2-2-3.2-2.7-3.7c-0.5-0.4-1.1-0.5-2-0.5h-1.5v6.7H598.3z M600.9,240.1h3.1c1.5,0,2.5-0.2,3-0.7c0.5-0.4,0.8-1,0.8-1.8
		c0-0.5-0.1-0.9-0.4-1.3c-0.3-0.4-0.6-0.6-1.1-0.8c-0.5-0.2-1.3-0.3-2.6-0.3h-2.9V240.1z"/>
</g>
</svg>
